<svg xmlns="http://www.w3.org/2000/svg" width="32" height="33" viewBox="0 0 32 33" fill="none">
  <path d="M0 25.2579V27.2663C0 27.784 0.41975 28.2038 0.9375 28.2038C1.45525 28.2038 1.875 27.784 1.875 27.2663V26.1954H30.125V27.2663C30.125 27.784 30.5448 28.2038 31.0625 28.2038C31.5802 28.2038 32 27.784 32 27.2663V25.2579V22.1787H0V25.2579Z" fill="#969696"/>
  <path d="M28.5521 14.2783H3.44788C1.54675 14.2783 0 15.8251 0 17.7263V20.3033H32V17.7263C32 15.8251 30.4533 14.2783 28.5521 14.2783Z" fill="#969696"/>
  <path d="M12.4851 10.1284C11.6177 10.1284 10.9121 10.834 10.9121 11.7013V12.4034H21.0871V11.7013C21.0871 10.834 20.3815 10.1284 19.5142 10.1284H12.4851Z" fill="#969696"/>
  <path d="M9.03735 11.7014C9.03735 9.80019 10.5841 8.2535 12.4854 8.2535H19.5145C21.4157 8.2535 22.9624 9.80019 22.9624 11.7014V12.4034H27.9833V7.68469C27.9833 5.7835 26.4365 4.23682 24.5353 4.23682H7.46448C5.56329 4.23682 4.0166 5.7835 4.0166 7.68469V12.4034H9.03735V11.7014Z" fill="#969696"/>
</svg>