<svg xmlns="http://www.w3.org/2000/svg" width="16" height="16" viewBox="0 0 16 16" fill="none">
  <g clip-path="url(#clip0_1863_9127)">
    <path d="M15.0022 7.00256C15.0022 3.11824 11.8396 -0.0274136 7.94889 0.000180162C4.09364 0.0274927 0.964298 3.20862 0.997329 7.06384C1.02452 10.2373 3.16289 12.9068 6.07639 13.7372C6.33992 13.8123 6.56514 13.9845 6.70202 14.2219L7.59124 15.7641C7.77264 16.0786 8.22664 16.0786 8.40805 15.7641L9.29727 14.2219C9.43408 13.9846 9.65914 13.8124 9.92255 13.7373C12.8549 12.9016 15.0022 10.2031 15.0022 7.00256Z" fill="#5490F9"/>
    <path d="M7.94841 0.000179757C7.71409 0.00183601 7.48253 0.0153673 7.25413 0.0397735C10.771 0.412023 13.5112 3.38702 13.5112 7.00259C13.5112 10.2031 11.3639 12.9016 8.43156 13.7373C8.16816 13.8124 7.94309 13.9846 7.80628 14.2219L7.25391 15.1799L7.59075 15.7641C7.77216 16.0786 8.22619 16.0786 8.40756 15.7641L9.29678 14.2219C9.43359 13.9846 9.65866 13.8124 9.92206 13.7373C12.8544 12.9016 15.0017 10.2031 15.0017 7.00259C15.0017 3.11824 11.8391 -0.0273827 7.94841 0.000179757Z" fill="#4A81F6"/>
    <path d="M8.13784 8.07742H7.86109C7.50159 8.07742 7.20462 7.7967 7.18443 7.43777L6.98796 3.94698C6.95527 3.36602 7.41755 2.87695 7.99946 2.87695C8.58137 2.87695 9.04365 3.36602 9.01096 3.94698L8.81449 7.43777C8.7943 7.7967 8.49734 8.07742 8.13784 8.07742Z" fill="#F1F1F4"/>
    <path d="M7.99969 2.87695C7.90631 2.87695 7.81612 2.88967 7.73047 2.9132C8.17869 3.03636 8.50022 3.4592 8.47275 3.94695L8.27628 7.43773C8.25859 7.75202 8.02872 8.0063 7.73047 8.0647C7.77284 8.07302 7.81659 8.07739 7.86131 8.07739H8.13806C8.49756 8.07739 8.79453 7.79667 8.81472 7.43773L9.01119 3.94695C9.04388 3.36602 8.58159 2.87695 7.99969 2.87695Z" fill="#E2DFE2"/>
    <path d="M8.21898 10.5423H7.77983C7.49477 10.5423 7.26367 10.3112 7.26367 10.0261V9.67241C7.26367 9.38734 7.49477 9.15625 7.77983 9.15625H8.21898C8.50405 9.15625 8.73514 9.38734 8.73514 9.67241V10.0261C8.73514 10.3112 8.50405 10.5423 8.21898 10.5423Z" fill="#F1F1F4"/>
    <path d="M8.21928 9.15625H7.78013C7.76338 9.15625 7.74684 9.15719 7.73047 9.15875C7.99222 9.18375 8.19697 9.40409 8.19697 9.67241V10.0261C8.19697 10.2944 7.99222 10.5148 7.73047 10.5398C7.74681 10.5413 7.76334 10.5422 7.78013 10.5422H8.21928C8.50434 10.5422 8.73541 10.3112 8.73541 10.0261V9.67237C8.73544 9.38734 8.50434 9.15625 8.21928 9.15625Z" fill="#E2DFE2"/>
  </g>
  <defs>
    <clipPath id="clip0_1863_9127">
      <rect width="16" height="16" fill="white"/>
    </clipPath>
  </defs>
</svg>